<?xml version="1.0" encoding="utf-8"?>
<!-- Generator: Adobe Illustrator 25.0.0, SVG Export Plug-In . SVG Version: 6.00 Build 0)  -->
<svg version="1.1" id="Capa_1" xmlns="http://www.w3.org/2000/svg" xmlns:xlink="http://www.w3.org/1999/xlink" x="0px" y="0px"
	 viewBox="0 0 63 60" style="enable-background:new 0 0 63 60;" xml:space="preserve">
<style type="text/css">
	.st0{fill-rule:evenodd;clip-rule:evenodd;fill:#5ED7C6;}
	.st1{fill:#FFFFFF;filter:url(#Adobe_OpacityMaskFilter);}
	.st2{mask:url(#mask0_1_);}
	.st3{fill:#FFFFFF;}
</style>
<path class="st0" d="M0,0v59.1h59.1V46.4h-4.2v8.4H4.2V4.2h38v12.7h12.7v8.4h4.2V12.7L46.4,0H0z"/>
<defs>
	<filter id="Adobe_OpacityMaskFilter" filterUnits="userSpaceOnUse" x="13.1" y="27" width="48.4" height="13.1">
		<feColorMatrix  type="matrix" values="1 0 0 0 0  0 1 0 0 0  0 0 1 0 0  0 0 0 1 0"/>
	</filter>
</defs>
<mask maskUnits="userSpaceOnUse" x="13.1" y="27" width="48.4" height="13.1" id="mask0_1_">
	<path class="st1" d="M9.5,20.5h57.8v23.6H9.5V20.5z"/>
</mask>
<g class="st2">
	<path class="st3" d="M22.9,38.3c-0.4,0.6-1,1.1-1.8,1.4c-0.8,0.3-1.7,0.5-2.7,0.5c-1,0-2-0.2-2.8-0.7c-0.8-0.5-1.4-1.2-1.9-2.1
		c-0.4-0.9-0.7-1.9-0.7-3.1v-1.1c0-1.9,0.4-3.4,1.3-4.5c0.9-1.1,2.2-1.6,3.8-1.6c1.3,0,2.4,0.3,3.2,1c0.8,0.7,1.3,1.6,1.5,2.9h-1.7
		c-0.3-1.7-1.3-2.5-3-2.5c-1.1,0-2,0.4-2.6,1.2c-0.6,0.8-0.9,1.9-0.9,3.4v1c0,1.4,0.3,2.6,1,3.4c0.7,0.8,1.5,1.3,2.7,1.3
		c0.6,0,1.2-0.1,1.7-0.2c0.5-0.1,0.9-0.4,1.2-0.7V35h-3v-1.4h4.6V38.3z M27.6,40h-1.7V27.2h1.7V40z M37.7,34.3h-5.4V40h-1.7V27.2
		h7.9v1.4h-6.2V33h5.4V34.3z M50.5,34c0,1.3-0.2,2.3-0.6,3.3c-0.4,0.9-1,1.6-1.8,2.1c-0.8,0.5-1.7,0.7-2.7,0.7c-1,0-1.9-0.2-2.7-0.7
		c-0.8-0.5-1.4-1.2-1.8-2.1c-0.4-0.9-0.6-2-0.7-3.2v-0.9c0-1.2,0.2-2.3,0.6-3.3c0.4-0.9,1-1.7,1.8-2.2c0.8-0.5,1.7-0.8,2.7-0.8
		c1,0,1.9,0.2,2.7,0.7c0.8,0.5,1.4,1.2,1.8,2.2c0.4,0.9,0.6,2,0.6,3.3V34z M48.8,33.2c0-1.5-0.3-2.7-0.9-3.5
		c-0.6-0.8-1.5-1.2-2.6-1.2c-1.1,0-1.9,0.4-2.5,1.2c-0.6,0.8-0.9,1.9-0.9,3.4V34c0,1.5,0.3,2.6,0.9,3.5c0.6,0.8,1.5,1.3,2.6,1.3
		c1.1,0,1.9-0.4,2.5-1.2c0.6-0.8,0.9-1.9,0.9-3.4V33.2z M56.8,34.3c-1.4-0.4-2.5-0.9-3.2-1.5c-0.7-0.6-1-1.4-1-2.2
		c0-1,0.4-1.8,1.2-2.5c0.8-0.7,1.9-1,3.1-1c0.9,0,1.7,0.2,2.3,0.5c0.7,0.3,1.2,0.8,1.6,1.4c0.4,0.6,0.6,1.3,0.6,2h-1.7
		c0-0.8-0.2-1.4-0.7-1.8c-0.5-0.4-1.2-0.7-2.1-0.7c-0.8,0-1.5,0.2-2,0.6c-0.5,0.4-0.7,0.9-0.7,1.5c0,0.5,0.2,1,0.7,1.3
		c0.4,0.4,1.2,0.7,2.3,1c1.1,0.3,1.9,0.6,2.5,1c0.6,0.4,1,0.8,1.3,1.3c0.3,0.5,0.4,1,0.4,1.7c0,1-0.4,1.9-1.2,2.5
		c-0.8,0.6-1.9,0.9-3.2,0.9c-0.9,0-1.7-0.2-2.5-0.5c-0.8-0.3-1.4-0.8-1.8-1.4c-0.4-0.6-0.6-1.3-0.6-2h1.7c0,0.8,0.3,1.4,0.9,1.8
		c0.6,0.4,1.3,0.7,2.3,0.7c0.9,0,1.6-0.2,2-0.5c0.5-0.4,0.7-0.9,0.7-1.5c0-0.6-0.2-1.1-0.7-1.5C58.7,35,57.9,34.6,56.8,34.3z"/>
</g>
</svg>
